<svg width="206" height="157" viewBox="0 0 206 157" fill="none" xmlns="http://www.w3.org/2000/svg">
<path d="M145.655 30.8145C135.659 20.6764 119.415 20.6764 109.336 30.8145L103.754 36.4749L108.003 40.7835L113.584 35.1231C121.248 27.3506 133.743 27.3506 141.407 35.1231C149.07 42.8956 149.07 55.5682 141.407 63.3406L135.825 69.001L140.074 73.3097L145.655 67.6493C155.651 57.5113 155.651 41.037 145.655 30.8145Z" fill="white"/>
<path d="M129.66 51.4282C130.827 50.2454 130.827 48.2178 129.66 47.035C128.494 45.8523 126.495 45.8523 125.329 47.035L119.748 52.6954L124.079 57.0886L129.66 51.4282Z" fill="white"/>
<path d="M98.173 30.8145C88.1768 20.6764 71.933 20.6764 61.8536 30.8145C51.8574 40.9525 51.8574 57.4268 61.8536 67.6493L67.5181 73.3097L103.837 110.145L140.074 73.3097H127.828V60.9751L132.077 65.2838L137.658 59.6234C143.239 53.963 143.239 44.6698 137.658 39.0094C132.077 33.349 122.913 33.349 117.332 39.0094L111.751 44.6698L115.999 48.9784H91.5922L103.837 36.5594L98.173 30.8145ZM79.6801 60.9751V73.3097H67.5181L79.6801 60.9751ZM121.581 43.2336C124.829 39.9387 130.161 39.9387 133.493 43.2336C136.741 46.5284 136.741 51.9354 133.493 55.3147L127.912 60.9751H115.999V48.894L121.581 43.2336ZM97.7565 73.3097V79.3926H103.754V73.3097H127.828V85.5599H115.833V97.81H103.754H97.7565V91.7272H103.754V85.6443H97.7565V91.7272H91.7588V85.6443H85.7611V79.5615H79.7634V73.3097H85.7611V79.3926H91.7588V73.3097H97.7565ZM91.5922 60.9751H79.6801L91.5922 48.894V60.9751Z" fill="white"/>
<path d="M97.756 79.3921H91.7583V85.4749H97.756V79.3921Z" fill="white"/>
<path d="M12.9461 136.001H16.9445V155.855H12.9461V147.322H4.53265V155.855H0.53418V136.001H4.53265V144.281H12.9461V136.001V136.001Z" fill="white"/>
<path d="M28.6081 156.109C26.3589 156.109 24.5263 155.348 23.1102 153.912C21.694 152.391 20.9443 150.448 20.9443 147.998C20.9443 145.548 21.694 143.605 23.1102 142.084C24.5263 140.648 26.3589 139.888 28.6914 139.888C31.0238 139.888 32.8564 140.564 34.2726 142C35.772 143.436 36.4384 145.379 36.4384 147.745C36.4384 148.336 36.4384 148.843 36.3551 149.265H25.0261C25.1094 150.279 25.5259 151.124 26.109 151.715C26.7754 152.307 27.6084 152.645 28.6081 152.645C29.9409 152.645 31.0238 152.053 31.6069 150.955H35.8553C35.4388 152.476 34.5225 153.659 33.2729 154.588C32.0234 155.602 30.4407 156.109 28.6081 156.109ZM31.1904 144.196C30.524 143.605 29.6077 143.267 28.6081 143.267C27.6084 143.267 26.7754 143.605 26.109 144.196C25.4426 144.788 25.0261 145.633 24.9428 146.731H32.2733C32.2733 145.633 31.9401 144.788 31.1904 144.196Z" fill="white"/>
<path d="M41.5191 153.743C40.1029 152.222 39.4365 150.279 39.4365 147.914C39.4365 145.548 40.1029 143.605 41.5191 142.084C42.9352 140.564 44.6845 139.803 46.767 139.803C48.8496 139.803 50.5156 140.733 51.6818 142.507V140.057H55.597V155.855H51.6818V153.236C50.5156 155.179 48.8496 156.109 46.767 156.109C44.6845 156.109 42.9352 155.264 41.5191 153.743ZM50.4323 151.378C51.2653 150.533 51.6818 149.434 51.6818 147.998C51.6818 146.562 51.2653 145.379 50.4323 144.619C49.5993 143.774 48.683 143.352 47.5168 143.352C46.4338 143.352 45.4342 143.774 44.6012 144.534C43.7682 145.379 43.3517 146.477 43.3517 147.914C43.3517 149.35 43.7682 150.533 44.6012 151.293C45.4342 152.138 46.3505 152.56 47.5168 152.56C48.5997 152.56 49.5993 152.222 50.4323 151.378Z" fill="white"/>
<path d="M60.4277 155.855V134.819H64.4262V155.855H60.4277Z" fill="white"/>
<path d="M75.422 152.476H77.338V155.855H74.8389C73.2562 155.855 72.0067 155.517 71.1737 154.757C70.3407 153.996 69.8408 152.814 69.8408 151.124V143.436H68.1748V140.141H69.8408V136.17H73.8393V140.057H77.338V143.352H73.8393V151.04C73.8393 151.546 73.9226 151.884 74.1725 152.138C74.4224 152.391 74.8389 152.476 75.422 152.476Z" fill="white"/>
<path d="M85.2511 134.734V142.422C86.2507 140.732 87.8335 139.803 90.0826 139.803C91.8319 139.803 93.3314 140.394 94.4143 141.577C95.4972 142.76 96.0803 144.45 96.0803 146.477V155.77H92.1651V147.153C92.1651 145.886 91.8319 144.956 91.2488 144.281C90.6657 143.605 89.7494 143.267 88.7498 143.267C87.7502 143.267 86.8338 143.605 86.2507 144.281C85.5843 144.956 85.3344 145.886 85.3344 147.153V155.855H81.3359V134.818H85.2511V134.734Z" fill="white"/>
<path d="M123.654 135.917H127.653V155.855H123.654L114.824 142.084V155.855H110.826V135.917H114.824L123.654 149.688V135.917V135.917Z" fill="white"/>
<path d="M133.568 153.743C132.152 152.222 131.485 150.279 131.485 147.914C131.485 145.548 132.152 143.605 133.568 142.084C134.984 140.564 136.733 139.803 138.816 139.803C140.982 139.803 142.564 140.733 143.731 142.507V140.057H147.646V155.855H143.731V153.236C142.564 155.179 140.898 156.109 138.816 156.109C136.733 156.109 134.984 155.264 133.568 153.743ZM142.481 151.378C143.314 150.533 143.731 149.434 143.731 147.998C143.731 146.562 143.314 145.379 142.481 144.619C141.648 143.774 140.732 143.352 139.566 143.352C138.483 143.352 137.483 143.774 136.65 144.534C135.817 145.379 135.401 146.477 135.401 147.914C135.401 149.35 135.817 150.533 136.65 151.293C137.483 152.138 138.399 152.56 139.566 152.56C140.732 152.56 141.648 152.222 142.481 151.378Z" fill="white"/>
<path d="M158.639 152.476H160.555V155.855H158.056C156.473 155.855 155.224 155.517 154.391 154.757C153.558 153.996 153.058 152.814 153.058 151.124V143.436H151.392V140.141H153.058V136.17H157.057V140.057H160.555V143.352H157.057V151.04C157.057 151.546 157.14 151.884 157.39 152.138C157.64 152.391 158.056 152.476 158.639 152.476Z" fill="white"/>
<path d="M168.802 136.086C168.802 136.762 168.553 137.353 168.053 137.86C167.636 138.282 167.053 138.536 166.47 138.536C165.804 138.536 165.22 138.282 164.721 137.86C164.221 137.353 164.054 136.846 164.054 136.086C164.054 135.41 164.304 134.819 164.804 134.312C165.22 133.889 165.804 133.636 166.387 133.636C167.053 133.636 167.636 133.889 168.136 134.312C168.553 134.819 168.802 135.325 168.802 136.086ZM164.387 155.855V140.057H168.386V155.855H164.387Z" fill="white"/>
<path d="M174.218 153.828C172.718 152.307 171.969 150.364 171.969 147.914C171.969 145.464 172.718 143.521 174.301 142.084C175.801 140.564 177.717 139.888 180.049 139.888C182.298 139.888 184.214 140.648 185.797 142.084C187.296 143.605 188.129 145.548 188.129 147.914C188.129 150.364 187.38 152.307 185.797 153.828C184.214 155.348 182.298 156.109 180.049 156.109C177.633 156.109 175.717 155.348 174.218 153.828ZM179.882 152.645C180.965 152.645 181.965 152.222 182.715 151.378C183.548 150.533 183.881 149.35 183.881 147.914C183.881 146.393 183.464 145.21 182.715 144.45C181.965 143.605 180.965 143.267 179.882 143.267C178.799 143.267 177.8 143.689 177.05 144.45C176.3 145.295 175.884 146.393 175.884 147.914C175.884 149.434 176.3 150.617 177.05 151.378C177.883 152.307 178.799 152.645 179.882 152.645Z" fill="white"/>
<path d="M195.542 140.057V142.422C196.542 140.733 198.125 139.803 200.374 139.803C202.123 139.803 203.623 140.395 204.706 141.577C205.788 142.76 206.372 144.45 206.372 146.477V155.771H202.456V147.153C202.456 145.886 202.123 144.957 201.54 144.281C200.957 143.605 200.041 143.267 199.041 143.267C197.958 143.267 197.125 143.605 196.459 144.281C195.792 144.957 195.542 145.886 195.542 147.153V155.855H191.544V140.057H195.542V140.057Z" fill="white"/>
</svg>
